<svg width="500" height="500" fill="#ffdf00" stroke="#806600" stroke-linecap="round" stroke-linejoin="round" stroke-width="2" xmlns="http://www.w3.org/2000/svg" xmlns:xlink="http://www.w3.org/1999/xlink"><path d="m162 499h175l-53-214 215 53v-175l-215 53 53-215h-175l53 214-214-53v175l214-53z"/><path d="m325 489h-150l54-218-218 54v-150l218 54-54-218h150l-54 218 218-54v150l-218-54z" fill="#d50663"/><circle cx="250" cy="250" r="98"/><circle cx="250" cy="250" r="88" fill="#001788"/><path d="m250 330-0-51m0-109-0 83" stroke="#ffdf00"/><path id="a" d="m250 170c-11 15-3 20-4 56 0 17-6 31-13 45-14-1-15-17-1-17-3-36-6-59-30-72v116h27c2 17 16 26 21 32m-40-131c11 15 11 30 13 49-4 2-7 6-8 10h-5zm40 80c-2-3-5-5-9-6 4-6 7-13 9-20m-40 13h4c4 8 8 11 16 12-2 4-2 8-2 12h-18zm28 14c5 1 9 5 9 10h-10c0-3 1-7 1-10zm-1 18h9v17c-4-5-8-10-9-17"/><use transform="matrix(-1 0 0 1 500 0)" xlink:href="#a"/></svg>
